<svg width="471" height="388" viewBox="0 0 471 388" fill="none" xmlns="http://www.w3.org/2000/svg">
<path d="M137.195 98.2695C123.612 103.981 109.091 104.174 96.1239 99.8724C93.4028 74.8211 107.205 49.9178 131.623 39.6505C139.578 36.3056 147.855 34.8571 155.953 35.092C155.136 40.174 154.981 45.3941 155.549 50.6207C160.922 52.4034 166.563 53.4115 172.293 53.5776C169.193 72.8541 156.519 90.1444 137.195 98.2695Z" fill="#FFDFDF"/>
<path opacity="0.6" d="M345.765 369.034C338.684 366 332.073 361.245 326.898 355.856C329.734 348.554 340.033 346.756 352.763 352.21C356.91 353.986 360.896 356.354 364.526 359.093C363.33 360.122 362.412 361.405 361.821 362.928C363.965 365.161 366.357 367.285 368.926 369.223C364.39 373.124 355.84 373.35 345.765 369.034Z" fill="#FFDFDF"/>
<path opacity="0.6" d="M210.338 223.26C204.587 219.308 201.239 213.567 200.367 207.293C211.618 199.785 226.505 198.904 236.843 206.009C240.211 208.323 242.753 211.252 244.458 214.542C241.869 215.519 239.362 216.796 237.015 218.362C237.376 220.962 238.164 223.47 239.37 225.797C229.548 229.503 218.519 228.882 210.338 223.26Z" fill="#FFDFDF"/>
<path d="M311.327 201.282C306.707 202.335 302.238 201.426 298.603 199.075C299.76 190.274 305.973 182.635 314.278 180.743C316.984 180.126 319.638 180.184 322.103 180.809C321.448 182.502 320.986 184.287 320.744 186.123C322.25 187.098 323.9 187.823 325.644 188.265C323.161 194.688 317.899 199.785 311.327 201.282Z" fill="#FFDFDF"/>
<path opacity="0.6" d="M25.2362 32.6115C26.3202 37.2242 25.442 41.6993 23.1161 45.3501C14.3079 44.253 6.62578 38.0922 4.67703 29.8002C4.04216 27.0988 4.08164 24.4447 4.68946 21.9756C6.38727 22.6187 8.17574 23.0689 10.0134 23.2978C10.9772 21.7849 11.6916 20.1302 12.1216 18.3832C18.5615 20.8225 23.694 26.0495 25.2362 32.6115Z" fill="#FFDFDF"/>
<path d="M313.422 318.441C305.015 313.876 300.574 306.584 300.049 298.247C318.506 286.649 341.733 283.498 356.845 291.705C361.768 294.379 365.328 297.989 367.542 302.196C363.393 303.854 359.333 305.904 355.483 308.324C355.7 311.778 356.592 315.053 358.158 318.029C342.421 324.317 325.381 324.936 313.422 318.441Z" fill="#FFDFDF"/>
<circle cx="209.184" cy="176" r="5" fill="white"/>
<circle cx="363.184" cy="343" r="5" fill="white"/>
<circle cx="78.1836" cy="5" r="5" fill="white"/>
<path d="M156.184 225.671C119.472 228.52 129.367 220.996 112.184 218C112.184 218 112.561 231.164 119.472 235.971C130.991 243.985 156.184 225.671 156.184 225.671Z" fill="#E5F2CF"/>
<path d="M429.33 352.142C458.464 374.661 446.078 373.602 456.81 387.352C456.81 387.352 465.362 377.338 463.463 369.136C460.298 355.465 429.33 352.142 429.33 352.142Z" fill="#E5F2CF"/>
</svg>
