<svg width="786" height="727" viewBox="0 0 786 727" fill="none" xmlns="http://www.w3.org/2000/svg">
<g filter="url(#filter0_n_361_38)">
<path d="M347 705L364.5 531H402L408.5 727L347 705Z" fill="url(#paint0_linear_361_38)"/>
</g>
<path opacity="0.3" fill-rule="evenodd" clip-rule="evenodd" d="M276.601 332.002C281.225 338.238 285.347 342.222 285.365 342.24C285.381 342.233 290.139 340.488 296.323 337.095C313.135 347.355 322.678 371.704 319.622 398.664C349.396 397.776 374.773 411.769 381.155 432.369C376.775 437.759 374.236 442.05 374.206 442.101C374.206 442.101 376.937 446.216 381.568 451.352C376.627 470.507 355.96 486.798 329.108 491.668C338.23 518.91 333.212 546.272 317.956 560.034C310.873 558.299 305.597 557.848 305.556 557.845C305.545 557.863 302.999 562.148 300.37 568.592C279.443 572.095 256.109 556.232 243.533 530.016C221.628 546.287 195.624 550.301 178.143 541.121C177.777 533.306 176.556 527.643 176.549 527.608C176.5 527.596 170.838 526.223 163.006 525.66C154.215 507.772 160.666 482.443 179.08 462.537C155.733 444.629 144.536 418.364 149.933 398.147C157.176 395.845 162.167 393.319 162.23 393.287C162.23 393.269 162.131 387.912 160.848 380.656C176.396 367.294 203.442 367.89 227.552 382.093C234.995 353.42 255.288 332.992 276.601 332.002Z" fill="#FFDFDF"/>
<path opacity="0.3" fill-rule="evenodd" clip-rule="evenodd" d="M426.601 332.002C431.225 338.238 435.347 342.222 435.365 342.24C435.382 342.233 440.14 340.488 446.323 337.095C463.135 347.355 472.678 371.704 469.622 398.664C499.396 397.776 524.773 411.769 531.155 432.369C526.775 437.759 524.236 442.05 524.206 442.101C524.206 442.101 526.937 446.216 531.568 451.352C526.627 470.507 505.96 486.798 479.108 491.668C488.229 518.91 483.212 546.272 467.957 560.034C460.877 558.3 455.603 557.849 455.556 557.845C455.535 557.88 452.994 562.162 450.37 568.593C429.443 572.096 406.109 556.231 393.533 530.016C371.628 546.287 345.624 550.301 328.143 541.121C327.777 533.306 326.556 527.643 326.549 527.608C326.5 527.596 320.839 526.223 313.006 525.66C304.215 507.772 310.666 482.442 329.081 462.537C305.733 444.628 294.536 418.364 299.933 398.146C307.177 395.844 312.167 393.319 312.23 393.287C312.23 393.262 312.13 387.907 310.848 380.656C326.396 367.293 353.442 367.889 377.552 382.092C384.995 353.42 405.288 332.992 426.601 332.002Z" fill="#FFDFDF"/>
<path opacity="0.3" fill-rule="evenodd" clip-rule="evenodd" d="M534.601 241.002C539.225 247.238 543.347 251.222 543.365 251.24C543.382 251.233 548.139 249.488 554.323 246.095C571.135 256.355 580.678 280.704 577.622 307.664C607.396 306.776 632.773 320.769 639.155 341.369C634.775 346.759 632.236 351.05 632.206 351.101C632.206 351.101 634.937 355.216 639.568 360.352C634.627 379.507 613.96 395.798 587.108 400.668C596.23 427.91 591.212 455.272 575.957 469.034C568.876 467.3 563.601 466.849 563.556 466.845C563.556 466.845 561.005 471.135 558.37 477.592C537.443 481.095 514.109 465.232 501.533 439.016C479.628 455.287 453.624 459.301 436.143 450.121C435.777 442.306 434.556 436.643 434.549 436.608C434.5 436.596 428.838 435.223 421.006 434.66C412.215 416.772 418.666 391.442 437.081 371.537C413.734 353.628 402.536 327.365 407.933 307.147C415.179 304.844 420.169 302.318 420.23 302.287C420.23 302.287 420.133 296.924 418.848 289.656C434.396 276.293 461.442 276.889 485.552 291.092C492.995 262.42 513.288 241.992 534.601 241.002Z" fill="#FFDFDF"/>
<path opacity="0.3" fill-rule="evenodd" clip-rule="evenodd" d="M326.601 232.002C331.225 238.238 335.347 242.222 335.365 242.24C335.382 242.233 340.139 240.488 346.323 237.095C363.135 247.355 372.678 271.704 369.622 298.664C399.396 297.776 424.773 311.769 431.155 332.369C426.775 337.759 424.236 342.05 424.206 342.101C424.206 342.101 426.937 346.216 431.568 351.352C426.627 370.507 405.96 386.798 379.108 391.668C388.23 418.91 383.212 446.272 367.957 460.034C360.878 458.3 355.604 457.849 355.556 457.845C355.54 457.872 352.995 462.155 350.369 468.593C329.443 472.095 306.109 456.231 293.533 430.016C271.628 446.287 245.624 450.301 228.143 441.121C227.777 433.306 226.556 427.643 226.549 427.608C226.5 427.596 220.838 426.223 213.006 425.66C204.215 407.772 210.666 382.442 229.081 362.537C205.734 344.628 194.536 318.365 199.933 298.147C207.179 295.844 212.169 293.318 212.23 293.287C212.23 293.287 212.133 287.924 210.848 280.656C226.396 267.293 253.442 267.889 277.552 282.092C284.995 253.42 305.288 232.992 326.601 232.002Z" fill="#FFDFDF"/>
<path opacity="0.3" fill-rule="evenodd" clip-rule="evenodd" d="M156.601 232.002C161.225 238.238 165.347 242.222 165.365 242.24C165.382 242.233 170.139 240.488 176.323 237.095C193.135 247.355 202.678 271.704 199.622 298.664C229.396 297.776 254.773 311.769 261.155 332.369C256.775 337.759 254.236 342.05 254.206 342.101C254.206 342.101 256.937 346.216 261.568 351.352C256.627 370.507 235.96 386.798 209.108 391.668C218.23 418.91 213.212 446.272 197.957 460.034C190.883 458.302 185.612 457.85 185.556 457.845C185.539 457.874 182.996 462.157 180.37 468.593C159.443 472.096 136.109 456.232 123.533 430.016C101.628 446.287 75.6241 450.301 58.1432 441.121C57.7767 433.306 56.5561 427.643 56.5486 427.608C56.5001 427.596 50.8385 426.223 43.0056 425.66C34.2151 407.772 40.6662 382.442 59.0809 362.537C35.7335 344.628 24.5362 318.365 29.9328 298.147C37.1786 295.844 42.1693 293.318 42.2303 293.287C42.2303 293.287 42.1333 287.924 40.8482 280.656C56.3957 267.293 83.4422 267.889 107.552 282.092C114.995 253.42 135.288 232.992 156.601 232.002Z" fill="#FFDFDF"/>
<path opacity="0.3" fill-rule="evenodd" clip-rule="evenodd" d="M226.601 110.002C231.225 116.238 235.347 120.222 235.365 120.24C235.382 120.233 240.139 118.488 246.323 115.095C263.135 125.355 272.678 149.704 269.622 176.664C299.396 175.776 324.773 189.769 331.155 210.369C326.775 215.759 324.236 220.05 324.206 220.101C324.206 220.101 326.937 224.216 331.568 229.352C326.627 248.507 305.96 264.798 279.108 269.668C288.23 296.91 283.212 324.272 267.957 338.034C260.882 336.301 255.61 335.849 255.556 335.845C255.556 335.845 253.005 340.135 250.37 346.592C229.443 350.095 206.109 334.232 193.533 308.016C171.628 324.287 145.624 328.301 128.143 319.121C127.777 311.306 126.556 305.643 126.549 305.608C126.5 305.596 120.838 304.223 113.006 303.66C104.215 285.772 110.666 260.442 129.081 240.537C105.734 222.628 94.5362 196.365 99.9328 176.147C107.179 173.844 112.169 171.318 112.23 171.287C112.23 171.287 112.133 165.924 110.848 158.656C126.396 145.293 153.442 145.889 177.552 160.092C184.995 131.42 205.288 110.992 226.601 110.002Z" fill="#FFDFDF"/>
<path opacity="0.3" fill-rule="evenodd" clip-rule="evenodd" d="M335.601 103.002C340.225 109.238 344.347 113.222 344.365 113.24C344.382 113.233 349.139 111.488 355.323 108.095C372.135 118.355 381.678 142.704 378.622 169.664C408.396 168.776 433.773 182.769 440.155 203.369C435.775 208.759 433.236 213.05 433.206 213.101C433.206 213.101 435.937 217.216 440.568 222.352C435.627 241.507 414.96 257.798 388.108 262.668C397.23 289.91 392.212 317.272 376.957 331.034C369.885 329.302 364.614 328.85 364.556 328.845C364.534 328.881 361.993 333.163 359.37 339.593C338.443 343.096 315.109 327.232 302.533 301.016C280.628 317.287 254.624 321.301 237.143 312.121C236.777 304.306 235.556 298.643 235.549 298.608C235.5 298.596 229.838 297.223 222.006 296.66C213.215 278.772 219.666 253.442 238.081 233.537C214.734 215.628 203.536 189.365 208.933 169.147C216.179 166.844 221.169 164.318 221.23 164.287C221.23 164.287 221.133 158.924 219.848 151.656C235.396 138.293 262.442 138.889 286.552 153.092C293.995 124.42 314.288 103.992 335.601 103.002Z" fill="#FFDFDF"/>
<path opacity="0.3" fill-rule="evenodd" clip-rule="evenodd" d="M479.601 93.0025C484.225 99.2384 488.347 103.222 488.365 103.24C488.382 103.233 493.139 101.488 499.323 98.0953C516.135 108.355 525.678 132.704 522.622 159.664C552.396 158.776 577.773 172.769 584.155 193.369C579.775 198.759 577.236 203.05 577.206 203.101C577.206 203.101 579.937 207.216 584.568 212.352C579.627 231.507 558.96 247.798 532.108 252.668C541.23 279.91 536.212 307.272 520.957 321.034C513.884 319.302 508.613 318.85 508.556 318.845C508.556 318.845 506.005 323.135 503.37 329.592C482.443 333.095 459.109 317.232 446.533 291.016C424.628 307.287 398.624 311.301 381.143 302.121C380.777 294.306 379.556 288.643 379.549 288.608C379.5 288.596 373.838 287.223 366.006 286.66C357.215 268.772 363.666 243.442 382.081 223.537C358.734 205.628 347.536 179.365 352.933 159.147C360.179 156.844 365.169 154.318 365.23 154.287C365.23 154.287 365.133 148.924 363.848 141.656C379.396 128.293 406.442 128.889 430.552 143.092C437.995 114.42 458.288 93.9918 479.601 93.0025Z" fill="#FFDFDF"/>
<path opacity="0.3" fill-rule="evenodd" clip-rule="evenodd" d="M590.601 317.002C595.225 323.238 599.347 327.222 599.365 327.24C599.382 327.233 604.139 325.488 610.323 322.095C627.135 332.355 636.678 356.704 633.622 383.664C663.396 382.776 688.773 396.769 695.155 417.369C690.775 422.759 688.236 427.05 688.206 427.101C688.206 427.101 690.937 431.216 695.568 436.352C690.627 455.507 669.96 471.798 643.108 476.668C652.23 503.91 647.212 531.272 631.957 545.034C624.845 543.292 619.555 542.845 619.555 542.845C619.532 542.883 616.993 547.164 614.37 553.593C593.443 557.096 570.109 541.231 557.533 515.016C535.628 531.287 509.624 535.301 492.143 526.121C491.777 518.306 490.556 512.643 490.549 512.608C490.5 512.596 484.838 511.223 477.006 510.66C468.215 492.772 474.666 467.442 493.081 447.537C469.734 429.628 458.536 403.365 463.933 383.147C471.179 380.844 476.169 378.318 476.23 378.287C476.23 378.287 476.133 372.924 474.848 365.656C490.396 352.293 517.442 352.889 541.552 367.092C548.995 338.42 569.288 317.992 590.601 317.002Z" fill="#FFDFDF"/>
<path opacity="0.3" fill-rule="evenodd" clip-rule="evenodd" d="M659.601 173.002C664.225 179.238 668.347 183.222 668.365 183.24C668.382 183.233 673.139 181.488 679.323 178.095C696.135 188.355 705.678 212.704 702.622 239.664C732.396 238.776 757.773 252.769 764.155 273.369C759.775 278.759 757.236 283.05 757.206 283.101C757.206 283.101 759.937 287.216 764.568 292.352C759.627 311.506 738.96 327.798 712.109 332.668C721.23 359.91 716.212 387.272 700.957 401.034C693.872 399.299 688.594 398.848 688.556 398.845C688.546 398.862 686 403.148 683.371 409.592C662.444 413.096 639.109 397.232 626.533 371.016C604.628 387.287 578.624 391.301 561.143 382.121C560.777 374.306 559.556 368.643 559.549 368.608C559.5 368.596 553.838 367.223 546.006 366.66C537.215 348.772 543.666 323.442 562.081 303.537C538.734 285.628 527.536 259.365 532.933 239.147C540.179 236.844 545.169 234.318 545.23 234.287C545.23 234.287 545.133 228.924 543.848 221.656C559.396 208.293 586.442 208.889 610.552 223.092C617.995 194.42 638.288 173.992 659.601 173.002Z" fill="#FFDFDF"/>
<path opacity="0.3" fill-rule="evenodd" clip-rule="evenodd" d="M576.601 93.0025C581.225 99.2384 585.347 103.222 585.365 103.24C585.382 103.233 590.139 101.488 596.323 98.0953C613.135 108.355 622.678 132.704 619.622 159.664C649.396 158.776 674.773 172.769 681.155 193.369C676.775 198.759 674.236 203.05 674.206 203.101C674.206 203.101 676.937 207.216 681.568 212.352C676.627 231.506 655.96 247.798 629.109 252.668C638.23 279.91 633.213 307.273 617.957 321.035C610.872 319.3 605.594 318.848 605.556 318.845C605.532 318.885 602.992 323.166 600.37 329.593C579.443 333.096 556.109 317.231 543.533 291.016C521.628 307.287 495.624 311.301 478.143 302.121C477.777 294.306 476.556 288.643 476.549 288.608C476.5 288.596 470.838 287.223 463.006 286.66C454.215 268.772 460.666 243.442 479.081 223.537C455.734 205.628 444.536 179.365 449.933 159.147C457.179 156.844 462.169 154.318 462.23 154.287C462.23 154.287 462.133 148.924 460.848 141.656C476.396 128.293 503.442 128.889 527.552 143.092C534.995 114.42 555.288 93.9918 576.601 93.0025Z" fill="#FFDFDF"/>
<path opacity="0.3" fill-rule="evenodd" clip-rule="evenodd" d="M476.601 68.0025C481.225 74.2384 485.347 78.2223 485.365 78.2397C485.382 78.2335 490.139 76.4876 496.323 73.0953C513.135 83.3547 522.678 107.704 519.622 134.664C549.396 133.776 574.773 147.769 581.155 168.369C576.775 173.759 574.236 178.05 574.206 178.101C574.206 178.101 576.937 182.216 581.568 187.352C576.627 206.506 555.96 222.798 529.109 227.668C538.23 254.91 533.213 282.273 517.957 296.035C510.872 294.3 505.594 293.848 505.556 293.845C505.532 293.885 502.992 298.166 500.37 304.593C479.443 308.096 456.109 292.231 443.533 266.016C421.628 282.287 395.624 286.301 378.143 277.121C377.777 269.306 376.556 263.643 376.549 263.608C376.5 263.596 370.838 262.223 363.006 261.66C354.215 243.772 360.666 218.442 379.081 198.537C355.734 180.628 344.536 154.365 349.933 134.147C357.179 131.844 362.169 129.318 362.23 129.287C362.23 129.287 362.133 123.924 360.848 116.656C376.396 103.293 403.442 103.889 427.552 118.092C434.995 89.42 455.288 68.9918 476.601 68.0025Z" fill="#FFDFDF"/>
<path opacity="0.3" fill-rule="evenodd" clip-rule="evenodd" d="M339.601 24.0025C344.225 30.2384 348.347 34.2223 348.365 34.2397C348.382 34.2335 353.139 32.4876 359.323 29.0953C376.135 39.3547 385.678 63.7044 382.622 90.6639C412.396 89.7764 437.773 103.769 444.155 124.369C439.775 129.759 437.236 134.05 437.206 134.101C437.206 134.101 439.937 138.216 444.568 143.352C439.627 162.506 418.96 178.798 392.109 183.668C401.23 210.91 396.213 238.273 380.957 252.035C373.872 250.3 368.594 249.848 368.556 249.845C368.532 249.885 365.992 254.166 363.37 260.593C342.443 264.096 319.109 248.231 306.533 222.016C284.628 238.287 258.624 242.301 241.143 233.121C240.777 225.306 239.556 219.643 239.549 219.608C239.5 219.596 233.838 218.223 226.006 217.66C217.215 199.772 223.666 174.442 242.081 154.537C218.734 136.628 207.536 110.365 212.933 90.1473C220.179 87.844 225.169 85.318 225.23 85.2871C225.23 85.2871 225.133 79.9243 223.848 72.6563C239.396 59.2934 266.442 59.8887 290.552 74.0925C297.995 45.42 318.288 24.9918 339.601 24.0025Z" fill="#FFDFDF"/>
<path opacity="0.3" fill-rule="evenodd" clip-rule="evenodd" d="M417.601 42.0025C422.225 48.2384 426.347 52.2223 426.365 52.2397C426.382 52.2335 431.139 50.4876 437.323 47.0953C454.135 57.3547 463.678 81.7044 460.622 108.664C490.396 107.776 515.773 121.769 522.155 142.369C517.775 147.759 515.236 152.05 515.206 152.101C515.206 152.101 517.937 156.216 522.568 161.352C517.627 180.506 496.96 196.798 470.109 201.668C479.23 228.91 474.212 256.272 458.957 270.034C451.874 268.299 446.599 267.848 446.556 267.845C446.533 267.884 443.993 272.165 441.37 278.593C420.443 282.096 397.109 266.231 384.533 240.016C362.628 256.287 336.624 260.301 319.143 251.121C318.777 243.306 317.556 237.643 317.549 237.608C317.5 237.596 311.838 236.223 304.006 235.66C295.215 217.772 301.666 192.442 320.081 172.537C296.734 154.628 285.536 128.365 290.933 108.147C298.179 105.844 303.169 103.318 303.23 103.287C303.23 103.287 303.133 97.9243 301.848 90.6563C317.396 77.2934 344.442 77.8887 368.552 92.0925C375.995 63.42 396.288 42.9918 417.601 42.0025Z" fill="#FFDFDF"/>
<path opacity="0.3" fill-rule="evenodd" clip-rule="evenodd" d="M401.601 291.002C406.225 297.238 410.347 301.222 410.365 301.24C410.382 301.233 415.139 299.488 421.323 296.095C438.135 306.355 447.678 330.704 444.622 357.664C474.396 356.776 499.773 370.769 506.155 391.369C501.775 396.759 499.236 401.05 499.206 401.101C499.206 401.101 501.937 405.216 506.568 410.352C501.627 429.506 480.96 445.798 454.109 450.668C463.23 477.91 458.212 505.272 442.957 519.034C435.874 517.299 430.599 516.848 430.556 516.845C430.533 516.884 427.993 521.165 425.37 527.593C404.443 531.096 381.109 515.231 368.533 489.016C346.628 505.287 320.624 509.301 303.143 500.121C302.777 492.306 301.556 486.643 301.549 486.608C301.5 486.596 295.838 485.223 288.006 484.66C279.215 466.772 285.666 441.442 304.081 421.537C280.734 403.628 269.536 377.365 274.933 357.147C282.179 354.844 287.169 352.318 287.23 352.287C287.23 352.287 287.133 346.924 285.848 339.656C301.396 326.293 328.442 326.889 352.552 341.092C359.995 312.42 380.288 291.992 401.601 291.002Z" fill="#FFDFDF"/>
<path opacity="0.3" fill-rule="evenodd" clip-rule="evenodd" d="M176.601 265.002C181.225 271.238 185.347 275.222 185.365 275.24C185.382 275.233 190.139 273.488 196.323 270.095C213.135 280.355 222.678 304.704 219.622 331.664C249.396 330.776 274.773 344.769 281.155 365.369C276.775 370.759 274.236 375.05 274.206 375.101C274.206 375.101 276.937 379.216 281.568 384.352C276.627 403.506 255.96 419.798 229.109 424.668C238.23 451.91 233.212 479.272 217.957 493.034C210.874 491.299 205.599 490.848 205.556 490.845C205.533 490.884 202.993 495.165 200.37 501.593C179.443 505.096 156.109 489.231 143.533 463.016C121.628 479.287 95.6241 483.301 78.1432 474.121C77.7767 466.306 76.5561 460.643 76.5486 460.608C76.5001 460.596 70.8385 459.223 63.0056 458.66C54.2151 440.772 60.6662 415.442 79.0809 395.537C55.7335 377.628 44.5362 351.365 49.9328 331.147C57.1786 328.844 62.1693 326.318 62.2303 326.287C62.2303 326.287 62.1333 320.924 60.8482 313.656C76.3957 300.293 103.442 300.889 127.552 315.092C134.995 286.42 155.288 265.992 176.601 265.002Z" fill="#FFDFDF"/>
<path opacity="0.3" fill-rule="evenodd" clip-rule="evenodd" d="M180.601 145.002C185.225 151.238 189.347 155.222 189.365 155.24C189.382 155.233 194.139 153.488 200.323 150.095C217.135 160.355 226.678 184.704 223.622 211.664C253.396 210.776 278.773 224.769 285.155 245.369C280.775 250.759 278.236 255.05 278.206 255.101C278.206 255.101 280.937 259.216 285.568 264.352C280.627 283.506 259.96 299.798 233.109 304.668C242.23 331.91 237.212 359.272 221.957 373.034C214.874 371.299 209.599 370.848 209.556 370.845C209.533 370.884 206.993 375.165 204.37 381.593C183.443 385.096 160.109 369.231 147.533 343.016C125.628 359.287 99.6241 363.301 82.1432 354.121C81.7767 346.306 80.5561 340.643 80.5486 340.608C80.5001 340.596 74.8385 339.223 67.0056 338.66C58.2151 320.772 64.6662 295.442 83.0809 275.537C59.7335 257.628 48.5362 231.365 53.9328 211.147C61.1786 208.844 66.1693 206.318 66.2303 206.287C66.2303 206.287 66.1333 200.924 64.8482 193.656C80.3957 180.293 107.442 180.889 131.552 195.092C138.995 166.42 159.288 145.992 180.601 145.002Z" fill="#FFDFDF"/>
<path opacity="0.3" fill-rule="evenodd" clip-rule="evenodd" d="M518.601 24.0025C523.225 30.2384 527.347 34.2223 527.365 34.2397C527.382 34.2335 532.139 32.4876 538.323 29.0953C555.135 39.3547 564.678 63.7044 561.622 90.6639C591.396 89.7764 616.773 103.769 623.155 124.369C618.775 129.759 616.236 134.05 616.206 134.101C616.206 134.101 618.937 138.216 623.568 143.352C618.627 162.506 597.96 178.798 571.109 183.668C580.23 210.91 575.212 238.272 559.957 252.034C552.874 250.299 547.599 249.848 547.556 249.845C547.533 249.884 544.993 254.165 542.37 260.593C521.443 264.096 498.109 248.231 485.533 222.016C463.628 238.287 437.624 242.301 420.143 233.121C419.777 225.306 418.556 219.643 418.549 219.608C418.5 219.596 412.838 218.223 405.006 217.66C396.215 199.772 402.666 174.442 421.081 154.537C397.734 136.628 386.536 110.365 391.933 90.1473C399.179 87.844 404.169 85.318 404.23 85.2871C404.23 85.2871 404.133 79.9243 402.848 72.6563C418.396 59.2934 445.442 59.8887 469.552 74.0925C476.995 45.42 497.288 24.9918 518.601 24.0025Z" fill="#FFDFDF"/>
<path opacity="0.3" fill-rule="evenodd" clip-rule="evenodd" d="M401.363 343.002C405.988 349.238 410.109 353.222 410.127 353.24C410.144 353.233 414.902 351.488 421.085 348.095C437.898 358.355 447.44 382.704 444.385 409.664C474.159 408.776 499.535 422.769 505.918 443.369C501.538 448.759 498.999 453.05 498.969 453.101C498.969 453.101 501.7 457.216 506.33 462.352C501.39 481.506 480.723 497.798 453.872 502.668C462.993 529.91 457.974 557.272 442.719 571.034C435.637 569.299 430.361 568.848 430.319 568.845C430.296 568.884 427.755 573.165 425.133 579.593C404.206 583.096 380.872 567.231 368.296 541.016C346.39 557.287 320.387 561.301 302.906 552.121C302.539 544.306 301.319 538.643 301.311 538.608C301.263 538.596 295.601 537.223 287.768 536.66C278.978 518.772 285.429 493.442 303.844 473.537C280.496 455.628 269.299 429.365 274.696 409.147C281.941 406.844 286.932 404.318 286.993 404.287C286.993 404.287 286.896 398.924 285.611 391.656C301.158 378.293 328.205 378.889 352.315 393.092C359.758 364.42 380.051 343.992 401.363 343.002Z" fill="#FFDFDF"/>
<path opacity="0.3" fill-rule="evenodd" clip-rule="evenodd" d="M401.363 343.002C405.988 349.238 410.109 353.222 410.127 353.24C410.144 353.233 414.902 351.488 421.085 348.095C437.898 358.355 447.44 382.704 444.385 409.664C474.159 408.776 499.535 422.769 505.918 443.369C501.538 448.759 498.999 453.05 498.969 453.101C498.969 453.101 501.7 457.216 506.33 462.352C501.39 481.506 480.723 497.798 453.872 502.668C462.993 529.91 457.974 557.272 442.719 571.034C435.637 569.299 430.361 568.848 430.319 568.845C430.296 568.884 427.755 573.165 425.133 579.593C404.206 583.096 380.872 567.231 368.296 541.016C346.39 557.287 320.387 561.301 302.906 552.121C302.539 544.306 301.319 538.643 301.311 538.608C301.263 538.596 295.601 537.223 287.768 536.66C278.978 518.772 285.429 493.442 303.844 473.537C280.496 455.628 269.299 429.365 274.696 409.147C281.941 406.844 286.932 404.318 286.993 404.287C286.993 404.287 286.896 398.924 285.611 391.656C301.158 378.293 328.205 378.889 352.315 393.092C359.758 364.42 380.051 343.992 401.363 343.002Z" fill="#FFDFDF"/>
<path opacity="0.3" fill-rule="evenodd" clip-rule="evenodd" d="M401.363 343.002C405.988 349.238 410.109 353.222 410.127 353.24C410.144 353.233 414.902 351.488 421.085 348.095C437.898 358.355 447.44 382.704 444.385 409.664C474.159 408.776 499.535 422.769 505.918 443.369C501.538 448.759 498.999 453.05 498.969 453.101C498.969 453.101 501.7 457.216 506.33 462.352C501.39 481.506 480.723 497.798 453.872 502.668C462.993 529.91 457.974 557.272 442.719 571.034C435.637 569.299 430.361 568.848 430.319 568.845C430.296 568.884 427.755 573.165 425.133 579.593C404.206 583.096 380.872 567.231 368.296 541.016C346.39 557.287 320.387 561.301 302.906 552.121C302.539 544.306 301.319 538.643 301.311 538.608C301.263 538.596 295.601 537.223 287.768 536.66C278.978 518.772 285.429 493.442 303.844 473.537C280.496 455.628 269.299 429.365 274.696 409.147C281.941 406.844 286.932 404.318 286.993 404.287C286.993 404.287 286.896 398.924 285.611 391.656C301.158 378.293 328.205 378.889 352.315 393.092C359.758 364.42 380.051 343.992 401.363 343.002Z" fill="#FFDFDF"/>
<path opacity="0.3" fill-rule="evenodd" clip-rule="evenodd" d="M362.363 205.002C366.988 211.238 371.109 215.222 371.127 215.24C371.144 215.233 375.902 213.488 382.085 210.095C398.898 220.355 408.44 244.704 405.385 271.664C435.159 270.776 460.535 284.769 466.918 305.369C462.538 310.759 459.999 315.05 459.969 315.101C459.969 315.101 462.7 319.216 467.33 324.352C462.39 343.506 441.723 359.798 414.872 364.668C423.993 391.91 418.974 419.272 403.719 433.034C396.637 431.299 391.361 430.848 391.319 430.845C391.296 430.884 388.755 435.165 386.133 441.593C365.206 445.096 341.872 429.231 329.296 403.016C307.39 419.287 281.387 423.301 263.906 414.121C263.539 406.306 262.319 400.643 262.311 400.608C262.263 400.596 256.601 399.223 248.768 398.66C239.978 380.772 246.429 355.442 264.844 335.537C241.496 317.628 230.299 291.365 235.696 271.147C242.941 268.844 247.932 266.318 247.993 266.287C247.993 266.287 247.896 260.924 246.611 253.656C262.158 240.293 289.205 240.889 313.315 255.092C320.758 226.42 341.051 205.992 362.363 205.002Z" fill="#FFDFDF"/>
<path opacity="0.3" fill-rule="evenodd" clip-rule="evenodd" d="M297.363 332.002C301.988 338.238 306.109 342.222 306.127 342.24C306.144 342.233 310.902 340.488 317.085 337.095C333.898 347.355 343.44 371.704 340.385 398.664C370.159 397.776 395.535 411.769 401.918 432.369C397.538 437.759 394.999 442.05 394.969 442.101C394.969 442.101 397.7 446.216 402.33 451.352C397.39 470.506 376.723 486.798 349.872 491.668C358.993 518.91 353.974 546.272 338.719 560.034C331.637 558.299 326.361 557.848 326.319 557.845C326.296 557.884 323.755 562.165 321.133 568.593C300.206 572.096 276.872 556.231 264.296 530.016C242.39 546.287 216.387 550.301 198.906 541.121C198.539 533.306 197.319 527.643 197.311 527.608C197.263 527.596 191.601 526.223 183.768 525.66C174.978 507.772 181.429 482.442 199.844 462.537C176.496 444.628 165.299 418.365 170.696 398.147C177.941 395.844 182.932 393.318 182.993 393.287C182.993 393.287 182.896 387.924 181.611 380.656C197.158 367.293 224.205 367.889 248.315 382.092C255.758 353.42 276.051 332.992 297.363 332.002Z" fill="#FFDFDF"/>
<path opacity="0.3" fill-rule="evenodd" clip-rule="evenodd" d="M518.363 333.002C522.988 339.238 527.109 343.222 527.127 343.24C527.144 343.233 531.902 341.488 538.085 338.095C554.898 348.355 564.44 372.704 561.385 399.664C591.159 398.776 616.535 412.769 622.918 433.369C618.538 438.759 615.999 443.05 615.969 443.101C615.969 443.101 618.7 447.216 623.33 452.352C618.39 471.506 597.723 487.798 570.872 492.668C579.993 519.91 574.974 547.272 559.719 561.034C552.637 559.299 547.361 558.848 547.319 558.845C547.296 558.884 544.755 563.165 542.133 569.593C521.206 573.096 497.872 557.231 485.296 531.016C463.39 547.287 437.387 551.301 419.906 542.121C419.539 534.306 418.319 528.643 418.311 528.608C418.263 528.596 412.601 527.223 404.768 526.66C395.978 508.772 402.429 483.442 420.844 463.537C397.496 445.628 386.299 419.365 391.696 399.147C398.941 396.844 403.932 394.318 403.993 394.287C403.993 394.287 403.896 388.924 402.611 381.656C418.158 368.293 445.205 368.889 469.315 383.092C476.758 354.42 497.051 333.992 518.363 333.002Z" fill="#FFDFDF"/>
<path opacity="0.3" fill-rule="evenodd" clip-rule="evenodd" d="M479.363 205.002C483.988 211.238 488.109 215.222 488.127 215.24C488.144 215.233 492.902 213.488 499.085 210.095C515.898 220.355 525.44 244.704 522.385 271.664C552.159 270.776 577.535 284.769 583.918 305.369C579.538 310.759 576.999 315.05 576.969 315.101C576.969 315.101 579.7 319.216 584.33 324.352C579.39 343.506 558.723 359.798 531.872 364.668C540.993 391.91 535.974 419.272 520.719 433.034C513.637 431.299 508.361 430.848 508.319 430.845C508.296 430.884 505.755 435.165 503.133 441.593C482.206 445.096 458.872 429.231 446.296 403.016C424.39 419.287 398.387 423.301 380.906 414.121C380.539 406.306 379.319 400.643 379.311 400.608C379.263 400.596 373.601 399.223 365.768 398.66C356.978 380.772 363.429 355.442 381.844 335.537C358.496 317.628 347.299 291.365 352.696 271.147C359.941 268.844 364.932 266.318 364.993 266.287C364.993 266.287 364.896 260.924 363.611 253.656C379.158 240.293 406.205 240.889 430.315 255.092C437.758 226.42 458.051 205.992 479.363 205.002Z" fill="#FFDFDF"/>
<defs>
<filter id="filter0_n_361_38" x="347" y="531" width="61.5" height="196" filterUnits="userSpaceOnUse" color-interpolation-filters="sRGB">
<feFlood flood-opacity="0" result="BackgroundImageFix"/>
<feBlend mode="normal" in="SourceGraphic" in2="BackgroundImageFix" result="shape"/>
<feTurbulence type="fractalNoise" baseFrequency="1.4285714626312256 1.4285714626312256" stitchTiles="stitch" numOctaves="3" result="noise" seed="3286" />
<feColorMatrix in="noise" type="luminanceToAlpha" result="alphaNoise" />
<feComponentTransfer in="alphaNoise" result="coloredNoise1">
<feFuncA type="discrete" tableValues="0 0 0 0 0 0 0 0 0 0 0 0 0 0 0 0 0 0 1 1 1 1 1 1 1 1 1 1 1 1 1 0 0 0 0 0 0 0 0 0 0 0 0 0 0 0 0 0 0 0 0 0 0 0 0 0 0 0 0 0 0 0 0 0 0 0 0 0 0 0 0 0 0 0 0 0 0 0 0 0 0 0 0 0 0 0 0 0 0 0 0 0 0 0 0 0 0 0 0 0 "/>
</feComponentTransfer>
<feComposite operator="in" in2="shape" in="coloredNoise1" result="noise1Clipped" />
<feComponentTransfer in="alphaNoise" result="coloredNoise2">
<feFuncA type="discrete" tableValues="0 0 0 0 0 0 0 0 0 0 0 0 0 0 0 0 0 0 0 0 0 0 0 0 0 0 0 0 0 0 0 0 0 0 0 0 0 0 0 0 0 0 0 0 0 0 0 0 0 0 0 0 0 0 0 0 0 0 0 0 0 0 0 0 0 0 0 0 0 1 1 1 1 1 1 1 1 1 1 1 1 1 0 0 0 0 0 0 0 0 0 0 0 0 0 0 0 0 0 0 "/>
</feComponentTransfer>
<feComposite operator="in" in2="shape" in="coloredNoise2" result="noise2Clipped" />
<feFlood flood-color="rgba(91, 91, 91, 0.6)" result="color1Flood" />
<feComposite operator="in" in2="noise1Clipped" in="color1Flood" result="color1" />
<feFlood flood-color="rgba(255, 255, 255, 0.25)" result="color2Flood" />
<feComposite operator="in" in2="noise2Clipped" in="color2Flood" result="color2" />
<feMerge result="effect1_noise_361_38">
<feMergeNode in="shape" />
<feMergeNode in="color1" />
<feMergeNode in="color2" />
</feMerge>
</filter>
<linearGradient id="paint0_linear_361_38" x1="377.763" y1="502" x2="377.75" y2="727" gradientUnits="userSpaceOnUse">
<stop stop-color="#F0D6B8" stop-opacity="0.5"/>
<stop offset="1" stop-color="#F0D6B8"/>
</linearGradient>
</defs>
</svg>
