<svg width="215" height="208" viewBox="0 0 215 208" fill="none" xmlns="http://www.w3.org/2000/svg">
<path d="M161.694 52.5527C158.784 23.7862 133.105 2.82538 104.338 5.73522C75.5716 8.64516 54.6107 34.3237 57.5205 63.0902C60.4303 91.8567 86.1089 112.818 114.875 109.908L114.918 110.332L114.239 110.396C85.5148 112.934 60.0073 91.907 57.0967 63.133C54.1633 34.1326 75.2947 8.24508 104.295 5.31148C133.296 2.37798 159.184 23.5094 162.117 52.5098L162.181 53.1894C164.72 81.9138 143.692 107.421 114.918 110.332L114.875 109.908C143.642 106.998 164.603 81.3193 161.694 52.5527Z" fill="#5B5B5B"/>
<path d="M209.103 87.5444C206.193 58.7779 180.514 37.8171 151.747 40.7269C122.981 43.6369 102.02 69.3154 104.93 98.0819C107.839 126.848 133.518 147.81 162.285 144.9L162.328 145.324L161.649 145.388C132.924 147.926 107.416 126.899 104.506 98.1247C101.573 69.1243 122.704 43.2368 151.704 40.3032C180.705 37.3697 206.593 58.5011 209.526 87.5015L209.59 88.1811C212.129 116.906 191.101 142.413 162.328 145.324L162.285 144.9C191.051 141.99 212.013 116.311 209.103 87.5444Z" fill="#5B5B5B"/>
<path d="M109.908 91.7441C106.998 62.9776 81.3194 42.0168 52.5528 44.9266C23.7864 47.8366 2.82559 73.5151 5.73531 102.282C8.64514 131.048 34.3238 152.009 63.0903 149.1L63.1332 149.523L62.4542 149.587C33.7297 152.126 8.22216 131.098 5.31157 102.324C2.37818 73.324 23.5096 47.4365 52.51 44.5029C81.5105 41.5694 107.399 62.7008 110.332 91.7012L110.396 92.3808C112.934 121.105 91.9071 146.613 63.1332 149.523L63.0903 149.1C91.8569 146.19 112.818 120.511 109.908 91.7441Z" fill="#5B5B5B"/>
<path d="M192.868 144.627C189.958 115.86 164.279 94.8996 135.513 97.8094C106.746 100.719 85.7856 126.398 88.6953 155.164C91.6051 183.931 117.284 204.892 146.05 201.983L146.093 202.406L145.414 202.47C116.69 205.009 91.1821 183.981 88.2715 155.207C85.3381 126.207 106.47 100.319 135.47 97.3857C164.47 94.4522 190.358 115.584 193.292 144.584L193.356 145.264C195.894 173.988 174.867 199.496 146.093 202.406L146.05 201.983C174.817 199.073 195.778 173.394 192.868 144.627Z" fill="#5B5B5B"/>
<path d="M131.091 144.681C128.181 115.914 102.502 94.9533 73.7355 97.8631C44.969 100.773 24.0082 126.452 26.9179 155.218C29.8278 183.985 55.5064 204.946 84.2729 202.036L84.3158 202.46L83.6369 202.524C54.9123 205.062 29.4048 184.035 26.4942 155.261C23.5608 126.261 44.6922 100.373 73.6926 97.4394C102.693 94.5059 128.581 115.637 131.515 144.638L131.579 145.317C134.117 174.042 113.09 199.549 84.3158 202.46L84.2729 202.036C113.04 199.126 134.001 173.447 131.091 144.681Z" fill="#5B5B5B"/>
<path d="M161.694 52.5527C158.784 23.7862 133.105 2.82538 104.338 5.73522C75.5716 8.64516 54.6107 34.3237 57.5205 63.0902C60.4303 91.8567 86.1089 112.818 114.875 109.908L114.918 110.332L114.239 110.396C85.5148 112.934 60.0073 91.907 57.0967 63.133C54.1633 34.1326 75.2947 8.24508 104.295 5.31148C133.296 2.37798 159.184 23.5094 162.117 52.5098L162.181 53.1894C164.72 81.9138 143.692 107.421 114.918 110.332L114.875 109.908C143.642 106.998 164.603 81.3193 161.694 52.5527Z" fill="#5B5B5B"/>
<path d="M209.103 87.5444C206.193 58.7779 180.514 37.8171 151.747 40.7269C122.981 43.6369 102.02 69.3154 104.93 98.0819C107.839 126.848 133.518 147.81 162.285 144.9L162.328 145.324L161.649 145.388C132.924 147.926 107.416 126.899 104.506 98.1247C101.573 69.1243 122.704 43.2368 151.704 40.3032C180.705 37.3697 206.593 58.5011 209.526 87.5015L209.59 88.1811C212.129 116.906 191.101 142.413 162.328 145.324L162.285 144.9C191.051 141.99 212.013 116.311 209.103 87.5444Z" fill="#5B5B5B"/>
<path d="M192.868 144.627C189.958 115.86 164.279 94.8996 135.513 97.8094C106.746 100.719 85.7856 126.398 88.6953 155.164C91.6051 183.931 117.284 204.892 146.05 201.983L146.093 202.406L145.414 202.47C116.69 205.009 91.1821 183.981 88.2715 155.207C85.3381 126.207 106.47 100.319 135.47 97.3857C164.47 94.4522 190.358 115.584 193.292 144.584L193.356 145.264C195.894 173.988 174.867 199.496 146.093 202.406L146.05 201.983C174.817 199.073 195.778 173.394 192.868 144.627Z" fill="#5B5B5B"/>
<path d="M131.091 144.681C128.181 115.914 102.502 94.9533 73.7355 97.8631C44.969 100.773 24.0082 126.452 26.9179 155.218C29.8278 183.985 55.5064 204.946 84.2729 202.036L84.3158 202.46L83.6369 202.524C54.9123 205.062 29.4048 184.035 26.4942 155.261C23.5608 126.261 44.6922 100.373 73.6926 97.4394C102.693 94.5059 128.581 115.637 131.515 144.638L131.579 145.317C134.117 174.042 113.09 199.549 84.3158 202.46L84.2729 202.036C113.04 199.126 134.001 173.447 131.091 144.681Z" fill="#5B5B5B"/>
<circle cx="140.636" cy="149.892" r="52.7788" transform="rotate(3.82273 140.636 149.892)" fill="#FFDFDF"/>
<circle cx="157.273" cy="92.4799" r="52.7788" transform="rotate(3.82273 157.273 92.4799)" fill="#FFDFDF"/>
<circle cx="109.616" cy="57.5957" r="52.7788" transform="rotate(3.82273 109.616 57.5957)" fill="#FFDFDF"/>
<circle cx="57.6172" cy="96.7944" r="52.7788" transform="rotate(3.82273 57.6172 96.7944)" fill="#FFDFDF"/>
<circle cx="78.9727" cy="151.258" r="52.7788" transform="rotate(3.82273 78.9727 151.258)" fill="#FFDFDF"/>
</svg>
