<svg width="355" height="344" viewBox="0 0 355 344" fill="none" xmlns="http://www.w3.org/2000/svg">
<path fill-rule="evenodd" clip-rule="evenodd" d="M157.665 24.1655C162.312 30.4321 166.455 34.4397 166.489 34.4724C166.539 34.454 171.318 32.6967 177.522 29.2928C194.449 39.6222 204.056 64.1384 200.979 91.2815C230.955 90.3876 256.502 104.475 262.929 125.214C258.518 130.643 255.963 134.964 255.934 135.013C255.934 135.013 258.684 139.156 263.346 144.327C258.372 163.612 237.565 180.015 210.532 184.918C219.715 212.346 214.662 239.893 199.303 253.748C192.144 251.995 186.818 251.544 186.818 251.544C186.798 251.578 184.24 255.889 181.598 262.365C160.528 265.892 137.036 249.919 124.374 223.526C102.32 239.907 76.1399 243.948 58.5399 234.706C58.1698 226.813 56.934 221.101 56.934 221.101C56.8997 221.093 51.1945 219.707 43.298 219.139C34.4478 201.13 40.9422 175.628 59.4821 155.587C35.9765 137.557 24.7033 111.115 30.1364 90.7608C37.4276 88.4431 42.4514 85.9016 42.5184 85.8676C42.5184 85.8676 42.4209 80.4675 41.1269 73.1497C56.7804 59.6968 84.0102 60.2975 108.284 74.5979C115.777 45.7302 136.207 25.1619 157.665 24.1655Z" fill="#FFDFDF"/>
<path opacity="0.7" fill-rule="evenodd" clip-rule="evenodd" d="M240.651 178.585C245.195 181.252 248.824 182.646 248.824 182.646C248.824 182.646 251.33 180.297 254.29 176.539C267.488 178.481 279.887 191.13 285.123 208.745C303.449 200.305 322.973 202.308 332.407 213.46C331.105 217.979 330.66 221.324 330.655 221.364C330.694 221.39 333.475 223.218 337.689 225.178C339.685 238.427 331.12 254.059 315.671 264.207C328.573 278.774 332.69 297.16 326.824 309.778C321.951 310.573 318.545 311.687 318.517 311.696C318.511 311.739 318.064 315.076 318.131 319.767C306.014 327.494 287.267 323.787 272.484 310.777C263.138 326.722 247.99 336.109 234.661 335.015C232.366 330.249 230.111 327.047 230.091 327.018C230.047 327.025 226.158 327.669 221.133 329.39C210.915 320.568 208.226 303.069 214.433 285.784C195.135 280.804 181.2 267.396 179.211 253.363C183.14 249.988 185.589 247.079 185.589 247.079C185.567 247.03 184.085 243.733 181.38 239.575C187.531 227.126 204.549 220.333 223.341 222.801C220.387 202.955 227.627 184.845 240.651 178.585Z" fill="#FFDFDF"/>
<circle cx="130.999" cy="149" r="5" fill="white"/>
<circle cx="145.999" cy="154" r="5" fill="white"/>
<circle cx="155.999" cy="141" r="5" fill="white"/>
<circle cx="145.999" cy="128" r="5" fill="white"/>
<circle cx="130.999" cy="133" r="5" fill="white"/>
<circle cx="255.555" cy="268.061" r="3.85714" transform="rotate(-30.6962 255.555 268.061)" fill="white"/>
<circle cx="267.475" cy="265.47" r="3.85714" transform="rotate(-30.6962 267.475 265.47)" fill="white"/>
<circle cx="268.989" cy="252.909" r="3.85714" transform="rotate(-30.6962 268.989 252.909)" fill="white"/>
<circle cx="257.237" cy="248.224" r="3.85714" transform="rotate(-30.6962 257.237 248.224)" fill="white"/>
<circle cx="249.254" cy="257.448" r="3.85714" transform="rotate(-30.6962 249.254 257.448)" fill="white"/>
</svg>
