<svg width="1440" height="758" viewBox="0 0 1440 758" fill="none" xmlns="http://www.w3.org/2000/svg">
<path d="M0 548.046C0 548.046 207.716 547.943 349 548.046C495.248 548.152 720 548.046 720 548.046C720 548.046 940.907 547.974 1085.5 548.046C1225.46 548.115 1440 548.046 1440 548.046V708.006C1440 708.006 1225.69 757.938 1085.5 758C941.07 758.064 720 708.006 720 708.006C720 708.006 483.492 643.408 341 643.38C196.975 643.351 0 708.006 0 708.006V548.046Z" fill="#FFFBF7"/>
<g filter="url(#filter0_n_392_98)">
<path d="M690 705L707.5 531H745L751.5 727L690 705Z" fill="url(#paint0_linear_392_98)"/>
</g>
<path opacity="0.3" d="M619.601 332.002C624.225 338.238 628.347 342.222 628.365 342.24C628.382 342.233 633.14 340.488 639.323 337.095C656.135 347.355 665.678 371.704 662.622 398.664C692.396 397.776 717.773 411.769 724.155 432.369C719.775 437.759 717.236 442.05 717.206 442.101C717.206 442.101 719.937 446.216 724.568 451.352C719.627 470.507 698.96 486.798 672.108 491.668C681.229 518.91 676.212 546.272 660.957 560.034C653.877 558.3 648.603 557.849 648.556 557.845C648.535 557.88 645.994 562.162 643.37 568.593C622.443 572.096 599.109 556.231 586.533 530.016C564.628 546.287 538.624 550.301 521.143 541.121C520.777 533.306 519.556 527.643 519.549 527.608C519.5 527.596 513.839 526.223 506.006 525.66C497.215 507.772 503.666 482.442 522.081 462.537C498.733 444.628 487.536 418.364 492.933 398.146C500.177 395.844 505.167 393.319 505.23 393.287C505.23 393.262 505.13 387.907 503.848 380.656C519.396 367.293 546.442 367.889 570.552 382.092C577.995 353.42 598.288 332.992 619.601 332.002Z" fill="#FFDFDF"/>
<path opacity="0.3" d="M769.601 332.002C774.225 338.238 778.347 342.222 778.365 342.24C778.382 342.233 783.139 340.488 789.323 337.095C806.135 347.355 815.678 371.704 812.622 398.664C842.396 397.776 867.773 411.769 874.155 432.369C869.775 437.759 867.236 442.05 867.206 442.101C867.206 442.101 869.937 446.216 874.568 451.352C869.627 470.507 848.96 486.798 822.108 491.668C831.23 518.91 826.212 546.272 810.957 560.034C803.876 558.3 798.601 557.849 798.556 557.845C798.556 557.845 796.005 562.135 793.37 568.592C772.443 572.095 749.109 556.232 736.533 530.016C714.628 546.287 688.624 550.301 671.143 541.121C670.777 533.306 669.556 527.643 669.549 527.608C669.5 527.596 663.838 526.223 656.006 525.66C647.215 507.772 653.666 482.442 672.081 462.537C648.734 444.628 637.536 418.365 642.933 398.147C650.179 395.844 655.169 393.318 655.23 393.287C655.23 393.287 655.133 387.924 653.848 380.656C669.396 367.293 696.442 367.889 720.552 382.092C727.995 353.42 748.288 332.992 769.601 332.002Z" fill="#FFDFDF"/>
<path opacity="0.3" d="M877.601 241.002C882.225 247.238 886.347 251.222 886.365 251.24C886.382 251.233 891.139 249.488 897.323 246.095C914.135 256.355 923.678 280.704 920.622 307.664C950.396 306.776 975.773 320.769 982.155 341.369C977.775 346.759 975.236 351.05 975.206 351.101C975.206 351.101 977.937 355.216 982.568 360.352C977.627 379.507 956.96 395.798 930.108 400.668C939.23 427.91 934.212 455.272 918.957 469.034C911.878 467.3 906.604 466.849 906.556 466.845C906.54 466.872 903.995 471.155 901.369 477.593C880.443 481.095 857.109 465.231 844.533 439.016C822.628 455.287 796.624 459.301 779.143 450.121C778.777 442.306 777.556 436.643 777.549 436.608C777.5 436.596 771.838 435.223 764.006 434.66C755.215 416.772 761.666 391.442 780.081 371.537C756.734 353.628 745.536 327.365 750.933 307.147C758.179 304.844 763.169 302.318 763.23 302.287C763.23 302.287 763.133 296.924 761.848 289.656C777.396 276.293 804.442 276.889 828.552 291.092C835.995 262.42 856.288 241.992 877.601 241.002Z" fill="#FFDFDF"/>
<path opacity="0.3" d="M669.601 232.002C674.225 238.238 678.347 242.222 678.365 242.24C678.382 242.233 683.139 240.488 689.323 237.095C706.135 247.355 715.678 271.704 712.622 298.664C742.396 297.776 767.773 311.769 774.155 332.369C769.775 337.759 767.236 342.05 767.206 342.101C767.206 342.101 769.937 346.216 774.568 351.352C769.627 370.507 748.96 386.798 722.108 391.668C731.23 418.91 726.212 446.272 710.957 460.034C703.883 458.302 698.612 457.85 698.556 457.845C698.539 457.874 695.996 462.157 693.37 468.593C672.443 472.096 649.109 456.232 636.533 430.016C614.628 446.287 588.624 450.301 571.143 441.121C570.777 433.306 569.556 427.643 569.549 427.608C569.5 427.596 563.838 426.223 556.006 425.66C547.215 407.772 553.666 382.442 572.081 362.537C548.734 344.628 537.536 318.365 542.933 298.147C550.179 295.844 555.169 293.318 555.23 293.287C555.23 293.287 555.133 287.924 553.848 280.656C569.396 267.293 596.442 267.889 620.552 282.092C627.995 253.42 648.288 232.992 669.601 232.002Z" fill="#FFDFDF"/>
<path opacity="0.3" d="M499.601 232.002C504.225 238.238 508.347 242.222 508.365 242.24C508.382 242.233 513.139 240.488 519.323 237.095C536.135 247.355 545.678 271.704 542.622 298.664C572.396 297.776 597.773 311.769 604.155 332.369C599.775 337.759 597.236 342.05 597.206 342.101C597.206 342.101 599.937 346.216 604.568 351.352C599.627 370.507 578.96 386.798 552.108 391.668C561.23 418.91 556.212 446.272 540.957 460.034C533.882 458.301 528.61 457.849 528.556 457.845C528.556 457.845 526.005 462.135 523.37 468.592C502.443 472.095 479.109 456.232 466.533 430.016C444.628 446.287 418.624 450.301 401.143 441.121C400.777 433.306 399.556 427.643 399.549 427.608C399.5 427.596 393.838 426.223 386.006 425.66C377.215 407.772 383.666 382.442 402.081 362.537C378.734 344.628 367.536 318.365 372.933 298.147C380.179 295.844 385.169 293.318 385.23 293.287C385.23 293.287 385.133 287.924 383.848 280.656C399.396 267.293 426.442 267.889 450.552 282.092C457.995 253.42 478.288 232.992 499.601 232.002Z" fill="#FFDFDF"/>
<path opacity="0.3" d="M569.601 110.002C574.225 116.238 578.347 120.222 578.365 120.24C578.382 120.233 583.139 118.488 589.323 115.095C606.135 125.355 615.678 149.704 612.622 176.664C642.396 175.776 667.773 189.769 674.155 210.369C669.775 215.759 667.236 220.05 667.206 220.101C667.206 220.101 669.937 224.216 674.568 229.352C669.627 248.507 648.96 264.798 622.108 269.668C631.23 296.91 626.212 324.272 610.957 338.034C603.885 336.302 598.614 335.85 598.556 335.845C598.534 335.881 595.993 340.163 593.37 346.593C572.443 350.096 549.109 334.232 536.533 308.016C514.628 324.287 488.624 328.301 471.143 319.121C470.777 311.306 469.556 305.643 469.549 305.608C469.5 305.596 463.838 304.223 456.006 303.66C447.215 285.772 453.666 260.442 472.081 240.537C448.734 222.628 437.536 196.365 442.933 176.147C450.179 173.844 455.169 171.318 455.23 171.287C455.23 171.287 455.133 165.924 453.848 158.656C469.396 145.293 496.442 145.889 520.552 160.092C527.995 131.42 548.288 110.992 569.601 110.002Z" fill="#FFDFDF"/>
<path opacity="0.3" d="M678.601 103.002C683.225 109.238 687.347 113.222 687.365 113.24C687.382 113.233 692.139 111.488 698.323 108.095C715.135 118.355 724.678 142.704 721.622 169.664C751.396 168.776 776.773 182.769 783.155 203.369C778.775 208.759 776.236 213.05 776.206 213.101C776.206 213.101 778.937 217.216 783.568 222.352C778.627 241.507 757.96 257.798 731.108 262.668C740.23 289.91 735.212 317.272 719.957 331.034C712.884 329.302 707.613 328.85 707.556 328.845C707.556 328.845 705.005 333.135 702.37 339.592C681.443 343.095 658.109 327.232 645.533 301.016C623.628 317.287 597.624 321.301 580.143 312.121C579.777 304.306 578.556 298.643 578.549 298.608C578.5 298.596 572.838 297.223 565.006 296.66C556.215 278.772 562.666 253.442 581.081 233.537C557.734 215.628 546.536 189.365 551.933 169.147C559.179 166.844 564.169 164.318 564.23 164.287C564.23 164.287 564.133 158.924 562.848 151.656C578.396 138.293 605.442 138.889 629.552 153.092C636.995 124.42 657.288 103.992 678.601 103.002Z" fill="#FFDFDF"/>
<path opacity="0.3" d="M822.601 93.0025C827.225 99.2384 831.347 103.222 831.365 103.24C831.382 103.233 836.139 101.488 842.323 98.0953C859.135 108.355 868.678 132.704 865.622 159.664C895.396 158.776 920.773 172.769 927.155 193.369C922.775 198.759 920.236 203.05 920.206 203.101C920.206 203.101 922.937 207.216 927.568 212.352C922.627 231.507 901.96 247.798 875.108 252.668C884.229 279.91 879.212 307.272 863.957 321.034C856.845 319.292 851.555 318.845 851.555 318.845C851.532 318.883 848.993 323.164 846.37 329.593C825.443 333.096 802.109 317.231 789.533 291.016C767.628 307.287 741.624 311.301 724.143 302.121C723.777 294.306 722.556 288.643 722.549 288.608C722.5 288.596 716.838 287.223 709.006 286.66C700.215 268.772 706.666 243.442 725.081 223.537C701.734 205.628 690.536 179.365 695.933 159.147C703.179 156.844 708.169 154.318 708.23 154.287C708.23 154.287 708.133 148.924 706.848 141.656C722.396 128.293 749.442 128.889 773.552 143.092C780.995 114.42 801.288 93.9918 822.601 93.0025Z" fill="#FFDFDF"/>
<path opacity="0.3" d="M933.601 317.002C938.225 323.238 942.347 327.222 942.365 327.24C942.382 327.233 947.139 325.488 953.323 322.095C970.135 332.355 979.678 356.704 976.622 383.664C1006.4 382.776 1031.77 396.769 1038.15 417.369C1033.77 422.759 1031.24 427.05 1031.21 427.101C1031.21 427.101 1033.94 431.216 1038.57 436.352C1033.63 455.506 1012.96 471.798 986.109 476.668C995.23 503.91 990.212 531.272 974.957 545.034C967.872 543.299 962.594 542.848 962.556 542.845C962.546 542.862 960 547.148 957.371 553.592C936.444 557.096 913.109 541.232 900.533 515.016C878.628 531.287 852.624 535.301 835.143 526.121C834.777 518.306 833.556 512.643 833.549 512.608C833.5 512.596 827.838 511.223 820.006 510.66C811.215 492.772 817.666 467.442 836.081 447.537C812.734 429.628 801.536 403.365 806.933 383.147C814.179 380.844 819.169 378.318 819.23 378.287C819.23 378.287 819.133 372.924 817.848 365.656C833.396 352.293 860.442 352.889 884.552 367.092C891.995 338.42 912.288 317.992 933.601 317.002Z" fill="#FFDFDF"/>
<path opacity="0.3" d="M1002.6 173.002C1007.23 179.238 1011.35 183.222 1011.36 183.24C1011.38 183.233 1016.14 181.488 1022.32 178.095C1039.14 188.355 1048.68 212.704 1045.62 239.664C1075.4 238.776 1100.77 252.769 1107.15 273.369C1102.77 278.759 1100.24 283.05 1100.21 283.101C1100.21 283.101 1102.94 287.216 1107.57 292.352C1102.63 311.506 1081.96 327.798 1055.11 332.668C1064.23 359.91 1059.21 387.273 1043.96 401.035C1036.87 399.3 1031.59 398.848 1031.56 398.845C1031.53 398.885 1028.99 403.166 1026.37 409.593C1005.44 413.096 982.109 397.231 969.533 371.016C947.628 387.287 921.624 391.301 904.143 382.121C903.777 374.306 902.556 368.643 902.549 368.608C902.5 368.596 896.838 367.223 889.006 366.66C880.215 348.772 886.666 323.442 905.081 303.537C881.734 285.628 870.536 259.365 875.933 239.147C883.179 236.844 888.169 234.318 888.23 234.287C888.23 234.287 888.133 228.924 886.848 221.656C902.396 208.293 929.442 208.889 953.552 223.092C960.995 194.42 981.288 173.992 1002.6 173.002Z" fill="#FFDFDF"/>
<path opacity="0.3" d="M919.601 93.0025C924.225 99.2384 928.347 103.222 928.365 103.24C928.382 103.233 933.139 101.488 939.323 98.0953C956.135 108.355 965.678 132.704 962.622 159.664C992.396 158.776 1017.77 172.769 1024.15 193.369C1019.77 198.759 1017.24 203.05 1017.21 203.101C1017.21 203.101 1019.94 207.216 1024.57 212.352C1019.63 231.506 998.96 247.798 972.109 252.668C981.23 279.91 976.212 307.272 960.957 321.034C953.874 319.299 948.599 318.848 948.556 318.845C948.533 318.884 945.993 323.165 943.37 329.593C922.443 333.096 899.109 317.231 886.533 291.016C864.628 307.287 838.624 311.301 821.143 302.121C820.777 294.306 819.556 288.643 819.549 288.608C819.5 288.596 813.838 287.223 806.006 286.66C797.215 268.772 803.666 243.442 822.081 223.537C798.734 205.628 787.536 179.365 792.933 159.147C800.179 156.844 805.169 154.318 805.23 154.287C805.23 154.287 805.133 148.924 803.848 141.656C819.396 128.293 846.442 128.889 870.552 143.092C877.995 114.42 898.288 93.9918 919.601 93.0025Z" fill="#FFDFDF"/>
<path opacity="0.3" d="M819.601 68.0025C824.225 74.2384 828.347 78.2223 828.365 78.2397C828.382 78.2335 833.139 76.4876 839.323 73.0953C856.135 83.3547 865.678 107.704 862.622 134.664C892.396 133.776 917.773 147.769 924.155 168.369C919.775 173.759 917.236 178.05 917.206 178.101C917.206 178.101 919.937 182.216 924.568 187.352C919.627 206.506 898.96 222.798 872.109 227.668C881.23 254.91 876.212 282.272 860.957 296.034C853.874 294.299 848.599 293.848 848.556 293.845C848.533 293.884 845.993 298.165 843.37 304.593C822.443 308.096 799.109 292.231 786.533 266.016C764.628 282.287 738.624 286.301 721.143 277.121C720.777 269.306 719.556 263.643 719.549 263.608C719.5 263.596 713.838 262.223 706.006 261.66C697.215 243.772 703.666 218.442 722.081 198.537C698.734 180.628 687.536 154.365 692.933 134.147C700.179 131.844 705.169 129.318 705.23 129.287C705.23 129.287 705.133 123.924 703.848 116.656C719.396 103.293 746.442 103.889 770.552 118.092C777.995 89.42 798.288 68.9918 819.601 68.0025Z" fill="#FFDFDF"/>
<path opacity="0.3" d="M682.601 24.0025C687.225 30.2384 691.347 34.2223 691.365 34.2397C691.382 34.2335 696.139 32.4876 702.323 29.0953C719.135 39.3547 728.678 63.7044 725.622 90.6639C755.396 89.7764 780.773 103.769 787.155 124.369C782.775 129.759 780.236 134.05 780.206 134.101C780.206 134.101 782.937 138.216 787.568 143.352C782.627 162.506 761.96 178.798 735.109 183.668C744.23 210.91 739.212 238.272 723.957 252.034C716.874 250.299 711.599 249.848 711.556 249.845C711.533 249.884 708.993 254.165 706.37 260.593C685.443 264.096 662.109 248.231 649.533 222.016C627.628 238.287 601.624 242.301 584.143 233.121C583.777 225.306 582.556 219.643 582.549 219.608C582.5 219.596 576.838 218.223 569.006 217.66C560.215 199.772 566.666 174.442 585.081 154.537C561.734 136.628 550.536 110.365 555.933 90.1473C563.179 87.844 568.169 85.318 568.23 85.2871C568.23 85.2871 568.133 79.9243 566.848 72.6563C582.396 59.2934 609.442 59.8887 633.552 74.0925C640.995 45.42 661.288 24.9918 682.601 24.0025Z" fill="#FFDFDF"/>
<path opacity="0.3" d="M760.601 42.0025C765.225 48.2384 769.347 52.2223 769.365 52.2397C769.382 52.2335 774.139 50.4876 780.323 47.0953C797.135 57.3547 806.678 81.7044 803.622 108.664C833.396 107.776 858.773 121.769 865.155 142.369C860.775 147.759 858.236 152.05 858.206 152.101C858.206 152.101 860.937 156.216 865.568 161.352C860.627 180.506 839.96 196.798 813.109 201.668C822.23 228.91 817.212 256.272 801.957 270.034C794.874 268.299 789.599 267.848 789.556 267.845C789.533 267.884 786.993 272.165 784.37 278.593C763.443 282.096 740.109 266.231 727.533 240.016C705.628 256.287 679.624 260.301 662.143 251.121C661.777 243.306 660.556 237.643 660.549 237.608C660.5 237.596 654.838 236.223 647.006 235.66C638.215 217.772 644.666 192.442 663.081 172.537C639.734 154.628 628.536 128.365 633.933 108.147C641.179 105.844 646.169 103.318 646.23 103.287C646.23 103.287 646.133 97.9243 644.848 90.6563C660.396 77.2934 687.442 77.8887 711.552 92.0925C718.995 63.42 739.288 42.9918 760.601 42.0025Z" fill="#FFDFDF"/>
<path opacity="0.3" d="M744.601 291.002C749.225 297.238 753.347 301.222 753.365 301.24C753.382 301.233 758.139 299.488 764.323 296.095C781.135 306.355 790.678 330.704 787.622 357.664C817.396 356.776 842.773 370.769 849.155 391.369C844.775 396.759 842.236 401.05 842.206 401.101C842.206 401.101 844.937 405.216 849.568 410.352C844.627 429.506 823.96 445.798 797.109 450.668C806.23 477.91 801.212 505.272 785.957 519.034C778.874 517.299 773.599 516.848 773.556 516.845C773.533 516.884 770.993 521.165 768.37 527.593C747.443 531.096 724.109 515.231 711.533 489.016C689.628 505.287 663.624 509.301 646.143 500.121C645.777 492.306 644.556 486.643 644.549 486.608C644.5 486.596 638.838 485.223 631.006 484.66C622.215 466.772 628.666 441.442 647.081 421.537C623.734 403.628 612.536 377.365 617.933 357.147C625.179 354.844 630.169 352.318 630.23 352.287C630.23 352.287 630.133 346.924 628.848 339.656C644.396 326.293 671.442 326.889 695.552 341.092C702.995 312.42 723.288 291.992 744.601 291.002Z" fill="#FFDFDF"/>
<path opacity="0.3" d="M519.601 265.002C524.225 271.238 528.347 275.222 528.365 275.24C528.382 275.233 533.139 273.488 539.323 270.095C556.135 280.355 565.678 304.704 562.622 331.664C592.396 330.776 617.773 344.769 624.155 365.369C619.775 370.759 617.236 375.05 617.206 375.101C617.206 375.101 619.937 379.216 624.568 384.352C619.627 403.506 598.96 419.798 572.109 424.668C581.23 451.91 576.212 479.272 560.957 493.034C553.874 491.299 548.599 490.848 548.556 490.845C548.533 490.884 545.993 495.165 543.37 501.593C522.443 505.096 499.109 489.231 486.533 463.016C464.628 479.287 438.624 483.301 421.143 474.121C420.777 466.306 419.556 460.643 419.549 460.608C419.5 460.596 413.838 459.223 406.006 458.66C397.215 440.772 403.666 415.442 422.081 395.537C398.734 377.628 387.536 351.365 392.933 331.147C400.179 328.844 405.169 326.318 405.23 326.287C405.23 326.287 405.133 320.924 403.848 313.656C419.396 300.293 446.442 300.889 470.552 315.092C477.995 286.42 498.288 265.992 519.601 265.002Z" fill="#FFDFDF"/>
<path opacity="0.3" d="M523.601 145.002C528.225 151.238 532.347 155.222 532.365 155.24C532.382 155.233 537.139 153.488 543.323 150.095C560.135 160.355 569.678 184.704 566.622 211.664C596.396 210.776 621.773 224.769 628.155 245.369C623.775 250.759 621.236 255.05 621.206 255.101C621.206 255.101 623.937 259.216 628.568 264.352C623.627 283.506 602.96 299.798 576.109 304.668C585.23 331.91 580.212 359.272 564.957 373.034C557.874 371.299 552.599 370.848 552.556 370.845C552.533 370.884 549.993 375.165 547.37 381.593C526.443 385.096 503.109 369.231 490.533 343.016C468.628 359.287 442.624 363.301 425.143 354.121C424.777 346.306 423.556 340.643 423.549 340.608C423.5 340.596 417.838 339.223 410.006 338.66C401.215 320.772 407.666 295.442 426.081 275.537C402.734 257.628 391.536 231.365 396.933 211.147C404.179 208.844 409.169 206.318 409.23 206.287C409.23 206.287 409.133 200.924 407.848 193.656C423.396 180.293 450.442 180.889 474.552 195.092C481.995 166.42 502.288 145.992 523.601 145.002Z" fill="#FFDFDF"/>
<path opacity="0.3" d="M861.601 24.0025C866.225 30.2384 870.347 34.2223 870.365 34.2397C870.382 34.2335 875.139 32.4876 881.323 29.0953C898.135 39.3547 907.678 63.7044 904.622 90.6639C934.396 89.7764 959.773 103.769 966.155 124.369C961.775 129.759 959.236 134.05 959.206 134.101C959.206 134.101 961.937 138.216 966.568 143.352C961.627 162.506 940.96 178.798 914.109 183.668C923.23 210.91 918.212 238.272 902.957 252.034C895.874 250.299 890.599 249.848 890.556 249.845C890.533 249.884 887.993 254.165 885.37 260.593C864.443 264.096 841.109 248.231 828.533 222.016C806.628 238.287 780.624 242.301 763.143 233.121C762.777 225.306 761.556 219.643 761.549 219.608C761.5 219.596 755.838 218.223 748.006 217.66C739.215 199.772 745.666 174.442 764.081 154.537C740.734 136.628 729.536 110.365 734.933 90.1473C742.179 87.844 747.169 85.318 747.23 85.2871C747.23 85.2871 747.133 79.9243 745.848 72.6563C761.396 59.2934 788.442 59.8887 812.552 74.0925C819.995 45.42 840.288 24.9918 861.601 24.0025Z" fill="#FFDFDF"/>
<path opacity="0.3" d="M744.363 343.002C748.988 349.238 753.109 353.222 753.127 353.24C753.144 353.233 757.902 351.488 764.085 348.095C780.898 358.355 790.44 382.704 787.385 409.664C817.159 408.776 842.535 422.769 848.918 443.369C844.538 448.759 841.999 453.05 841.969 453.101C841.969 453.101 844.7 457.216 849.33 462.352C844.39 481.506 823.723 497.798 796.872 502.668C805.993 529.91 800.974 557.272 785.719 571.034C778.637 569.299 773.361 568.848 773.319 568.845C773.296 568.884 770.755 573.165 768.133 579.593C747.206 583.096 723.872 567.231 711.296 541.016C689.39 557.287 663.387 561.301 645.906 552.121C645.539 544.306 644.319 538.643 644.311 538.608C644.263 538.596 638.601 537.223 630.768 536.66C621.978 518.772 628.429 493.442 646.844 473.537C623.496 455.628 612.299 429.365 617.696 409.147C624.941 406.844 629.932 404.318 629.993 404.287C629.993 404.287 629.896 398.924 628.611 391.656C644.158 378.293 671.205 378.889 695.315 393.092C702.758 364.42 723.051 343.992 744.363 343.002Z" fill="#FFDFDF"/>
<path opacity="0.3" d="M744.363 343.002C748.988 349.238 753.109 353.222 753.127 353.24C753.144 353.233 757.902 351.488 764.085 348.095C780.898 358.355 790.44 382.704 787.385 409.664C817.159 408.776 842.535 422.769 848.918 443.369C844.538 448.759 841.999 453.05 841.969 453.101C841.969 453.101 844.7 457.216 849.33 462.352C844.39 481.506 823.723 497.798 796.872 502.668C805.993 529.91 800.974 557.272 785.719 571.034C778.637 569.299 773.361 568.848 773.319 568.845C773.296 568.884 770.755 573.165 768.133 579.593C747.206 583.096 723.872 567.231 711.296 541.016C689.39 557.287 663.387 561.301 645.906 552.121C645.539 544.306 644.319 538.643 644.311 538.608C644.263 538.596 638.601 537.223 630.768 536.66C621.978 518.772 628.429 493.442 646.844 473.537C623.496 455.628 612.299 429.365 617.696 409.147C624.941 406.844 629.932 404.318 629.993 404.287C629.993 404.287 629.896 398.924 628.611 391.656C644.158 378.293 671.205 378.889 695.315 393.092C702.758 364.42 723.051 343.992 744.363 343.002Z" fill="#FFDFDF"/>
<path opacity="0.3" d="M744.363 343.002C748.988 349.238 753.109 353.222 753.127 353.24C753.144 353.233 757.902 351.488 764.085 348.095C780.898 358.355 790.44 382.704 787.385 409.664C817.159 408.776 842.535 422.769 848.918 443.369C844.538 448.759 841.999 453.05 841.969 453.101C841.969 453.101 844.7 457.216 849.33 462.352C844.39 481.506 823.723 497.798 796.872 502.668C805.993 529.91 800.974 557.272 785.719 571.034C778.637 569.299 773.361 568.848 773.319 568.845C773.296 568.884 770.755 573.165 768.133 579.593C747.206 583.096 723.872 567.231 711.296 541.016C689.39 557.287 663.387 561.301 645.906 552.121C645.539 544.306 644.319 538.643 644.311 538.608C644.263 538.596 638.601 537.223 630.768 536.66C621.978 518.772 628.429 493.442 646.844 473.537C623.496 455.628 612.299 429.365 617.696 409.147C624.941 406.844 629.932 404.318 629.993 404.287C629.993 404.287 629.896 398.924 628.611 391.656C644.158 378.293 671.205 378.889 695.315 393.092C702.758 364.42 723.051 343.992 744.363 343.002Z" fill="#FFDFDF"/>
<path opacity="0.3" d="M705.363 205.002C709.988 211.238 714.109 215.222 714.127 215.24C714.144 215.233 718.902 213.488 725.085 210.095C741.898 220.355 751.44 244.704 748.385 271.664C778.159 270.776 803.535 284.769 809.918 305.369C805.538 310.759 802.999 315.05 802.969 315.101C802.969 315.101 805.7 319.216 810.33 324.352C805.39 343.506 784.723 359.798 757.872 364.668C766.993 391.91 761.974 419.272 746.719 433.034C739.637 431.299 734.361 430.848 734.319 430.845C734.296 430.884 731.755 435.165 729.133 441.593C708.206 445.096 684.872 429.231 672.296 403.016C650.39 419.287 624.387 423.301 606.906 414.121C606.539 406.306 605.319 400.643 605.311 400.608C605.263 400.596 599.601 399.223 591.768 398.66C582.978 380.772 589.429 355.442 607.844 335.537C584.496 317.628 573.299 291.365 578.696 271.147C585.941 268.844 590.932 266.318 590.993 266.287C590.993 266.287 590.896 260.924 589.611 253.656C605.158 240.293 632.205 240.889 656.315 255.092C663.758 226.42 684.051 205.992 705.363 205.002Z" fill="#FFDFDF"/>
<path opacity="0.3" d="M640.363 332.002C644.988 338.238 649.109 342.222 649.127 342.24C649.144 342.233 653.902 340.488 660.085 337.095C676.898 347.355 686.44 371.704 683.385 398.664C713.159 397.776 738.535 411.769 744.918 432.369C740.538 437.759 737.999 442.05 737.969 442.101C737.969 442.101 740.7 446.216 745.33 451.352C740.39 470.506 719.723 486.798 692.872 491.668C701.993 518.91 696.974 546.272 681.719 560.034C674.637 558.299 669.361 557.848 669.319 557.845C669.296 557.884 666.755 562.165 664.133 568.593C643.206 572.096 619.872 556.231 607.296 530.016C585.39 546.287 559.387 550.301 541.906 541.121C541.539 533.306 540.319 527.643 540.311 527.608C540.263 527.596 534.601 526.223 526.768 525.66C517.978 507.772 524.429 482.442 542.844 462.537C519.496 444.628 508.299 418.365 513.696 398.147C520.941 395.844 525.932 393.318 525.993 393.287C525.993 393.287 525.896 387.924 524.611 380.656C540.158 367.293 567.205 367.889 591.315 382.092C598.758 353.42 619.051 332.992 640.363 332.002Z" fill="#FFDFDF"/>
<path opacity="0.3" d="M861.363 333.002C865.988 339.238 870.109 343.222 870.127 343.24C870.144 343.233 874.902 341.488 881.085 338.095C897.898 348.355 907.44 372.704 904.385 399.664C934.159 398.776 959.535 412.769 965.918 433.369C961.538 438.759 958.999 443.05 958.969 443.101C958.969 443.101 961.7 447.216 966.33 452.352C961.39 471.506 940.723 487.798 913.872 492.668C922.993 519.91 917.974 547.272 902.719 561.034C895.637 559.299 890.361 558.848 890.319 558.845C890.296 558.884 887.755 563.165 885.133 569.593C864.206 573.096 840.872 557.231 828.296 531.016C806.39 547.287 780.387 551.301 762.906 542.121C762.539 534.306 761.319 528.643 761.311 528.608C761.263 528.596 755.601 527.223 747.768 526.66C738.978 508.772 745.429 483.442 763.844 463.537C740.496 445.628 729.299 419.365 734.696 399.147C741.941 396.844 746.932 394.318 746.993 394.287C746.993 394.287 746.896 388.924 745.611 381.656C761.158 368.293 788.205 368.889 812.315 383.092C819.758 354.42 840.051 333.992 861.363 333.002Z" fill="#FFDFDF"/>
<path opacity="0.3" d="M822.363 205.002C826.988 211.238 831.109 215.222 831.127 215.24C831.144 215.233 835.902 213.488 842.085 210.095C858.898 220.355 868.44 244.704 865.385 271.664C895.159 270.776 920.535 284.769 926.918 305.369C922.538 310.759 919.999 315.05 919.969 315.101C919.969 315.101 922.7 319.216 927.33 324.352C922.39 343.506 901.723 359.798 874.872 364.668C883.993 391.91 878.974 419.272 863.719 433.034C856.637 431.299 851.361 430.848 851.319 430.845C851.296 430.884 848.755 435.165 846.133 441.593C825.206 445.096 801.872 429.231 789.296 403.016C767.39 419.287 741.387 423.301 723.906 414.121C723.539 406.306 722.319 400.643 722.311 400.608C722.263 400.596 716.601 399.223 708.768 398.66C699.978 380.772 706.429 355.442 724.844 335.537C701.496 317.628 690.299 291.365 695.696 271.147C702.941 268.844 707.932 266.318 707.993 266.287C707.993 266.287 707.896 260.924 706.611 253.656C722.158 240.293 749.205 240.889 773.315 255.092C780.758 226.42 801.051 205.992 822.363 205.002Z" fill="#FFDFDF"/>
<defs>
<filter id="filter0_n_392_98" x="690" y="531" width="61.5" height="196" filterUnits="userSpaceOnUse" color-interpolation-filters="sRGB">
<feFlood flood-opacity="0" result="BackgroundImageFix"/>
<feBlend mode="normal" in="SourceGraphic" in2="BackgroundImageFix" result="shape"/>
<feTurbulence type="fractalNoise" baseFrequency="1.4285714626312256 1.4285714626312256" stitchTiles="stitch" numOctaves="3" result="noise" seed="3286" />
<feColorMatrix in="noise" type="luminanceToAlpha" result="alphaNoise" />
<feComponentTransfer in="alphaNoise" result="coloredNoise1">
<feFuncA type="discrete" tableValues="0 0 0 0 0 0 0 0 0 0 0 0 0 0 0 0 0 0 1 1 1 1 1 1 1 1 1 1 1 1 1 0 0 0 0 0 0 0 0 0 0 0 0 0 0 0 0 0 0 0 0 0 0 0 0 0 0 0 0 0 0 0 0 0 0 0 0 0 0 0 0 0 0 0 0 0 0 0 0 0 0 0 0 0 0 0 0 0 0 0 0 0 0 0 0 0 0 0 0 0 "/>
</feComponentTransfer>
<feComposite operator="in" in2="shape" in="coloredNoise1" result="noise1Clipped" />
<feComponentTransfer in="alphaNoise" result="coloredNoise2">
<feFuncA type="discrete" tableValues="0 0 0 0 0 0 0 0 0 0 0 0 0 0 0 0 0 0 0 0 0 0 0 0 0 0 0 0 0 0 0 0 0 0 0 0 0 0 0 0 0 0 0 0 0 0 0 0 0 0 0 0 0 0 0 0 0 0 0 0 0 0 0 0 0 0 0 0 0 1 1 1 1 1 1 1 1 1 1 1 1 1 0 0 0 0 0 0 0 0 0 0 0 0 0 0 0 0 0 0 "/>
</feComponentTransfer>
<feComposite operator="in" in2="shape" in="coloredNoise2" result="noise2Clipped" />
<feFlood flood-color="rgba(91, 91, 91, 0.6)" result="color1Flood" />
<feComposite operator="in" in2="noise1Clipped" in="color1Flood" result="color1" />
<feFlood flood-color="rgba(255, 255, 255, 0.25)" result="color2Flood" />
<feComposite operator="in" in2="noise2Clipped" in="color2Flood" result="color2" />
<feMerge result="effect1_noise_392_98">
<feMergeNode in="shape" />
<feMergeNode in="color1" />
<feMergeNode in="color2" />
</feMerge>
</filter>
<linearGradient id="paint0_linear_392_98" x1="720.763" y1="502" x2="720.75" y2="727" gradientUnits="userSpaceOnUse">
<stop stop-color="#F0D6B8" stop-opacity="0.5"/>
<stop offset="1" stop-color="#F0D6B8"/>
</linearGradient>
</defs>
</svg>
