<svg width="325" height="78" viewBox="0 0 325 78" fill="none" xmlns="http://www.w3.org/2000/svg">
<path opacity="0.6" d="M233.035 0.217773L233.536 0.224609C244.064 0.491856 252.518 9.10982 252.518 19.7021L252.511 20.2051C252.244 30.7304 243.63 39.1809 233.041 39.1855V39.1865H92.7471V39.1855H91.9678V39.4717C82.4888 40.2631 75.0422 48.2073 75.042 57.8906C75.0422 67.574 82.4888 75.5171 91.9678 76.3086V76.375H325.003V77.375H91.9678V77.3125C82.1006 76.5316 74.3025 68.4004 74.0488 58.3936L74.042 57.8906C74.0422 47.391 82.3477 38.8319 92.7471 38.4229V38.1865H232.253V38.168C232.511 38.1787 232.772 38.1865 233.033 38.1865C243.241 38.186 251.517 29.9102 251.518 19.7021C251.518 9.49395 243.241 1.21828 233.033 1.21777C232.772 1.21777 232.511 1.22462 232.253 1.23535V1H0V0H233.035V0.217773Z" fill="#5B5B5B"/>
</svg>
