<svg width="238" height="57" viewBox="0 0 238 57" fill="none" xmlns="http://www.w3.org/2000/svg">
<path opacity="0.58" d="M67.3496 0.426758L66.9834 0.431641C59.2736 0.627068 53.0832 6.93843 53.083 14.6953L53.0879 15.0635C53.2832 22.7711 59.5909 28.9591 67.3447 28.9629V28.9639H170.655V29.4424C177.449 30.0214 182.782 35.7188 182.782 42.6621C182.782 49.6052 177.449 55.3019 170.655 55.8809V55.9297H0.000976562V56.9297H169.462C169.479 56.9297 169.496 56.9307 169.514 56.9307L169.587 56.9297H170.655V56.8838C177.881 56.3118 183.591 50.3582 183.777 43.0303L183.782 42.6621C183.782 34.9729 177.7 28.7047 170.084 28.4053V27.9639H67.9229V27.9502C67.7334 27.9582 67.5429 27.9639 67.3516 27.9639C60.0238 27.9637 54.0831 22.0231 54.083 14.6953C54.0832 7.36762 60.0239 1.42692 67.3516 1.42676C67.5429 1.42676 67.7335 1.43143 67.9229 1.43945V1H238.004V0H67.3496V0.426758Z" fill="#5B5B5B"/>
</svg>
